<?xml version="1.0" encoding="UTF-8"?>
<svg width="214px" height="202px" viewBox="0 0 214 202" version="1.1" xmlns="http://www.w3.org/2000/svg" xmlns:xlink="http://www.w3.org/1999/xlink">
    <!-- Generator: Sketch 52.5 (67469) - http://www.bohemiancoding.com/sketch -->
    <title>Group@2x</title>
    <desc>Created with Sketch.</desc>
    <g id="Page-1" stroke="none" stroke-width="1" fill="none" fill-rule="evenodd">
        <g id="Group" fill="#ffffff" fill-rule="nonzero">
            <g id="menu">
                <rect id="Rectangle" x="0" y="0" width="58" height="54" rx="2"></rect>
            </g>
            <g id="menu-copy" transform="translate(78.000000, 0.000000)">
                <rect id="Rectangle" x="0" y="0" width="58" height="54" rx="2"></rect>
            </g>
            <g id="menu-copy" transform="translate(156.000000, 0.000000)">
                <rect id="Rectangle" x="0" y="0" width="58" height="54" rx="2"></rect>
            </g>
            <g id="menu" transform="translate(0.000000, 74.000000)">
                <rect id="Rectangle" x="0" y="0" width="58" height="54" rx="2"></rect>
            </g>
            <g id="menu-copy" transform="translate(78.000000, 74.000000)">
                <rect id="Rectangle" x="0" y="0" width="58" height="54" rx="2"></rect>
            </g>
            <g id="menu-copy" transform="translate(156.000000, 74.000000)">
                <rect id="Rectangle" x="0" y="0" width="58" height="54" rx="2"></rect>
            </g>
            <g id="menu" transform="translate(0.000000, 148.000000)">
                <rect id="Rectangle" x="0" y="0" width="58" height="54" rx="2"></rect>
            </g>
            <g id="menu-copy" transform="translate(78.000000, 148.000000)">
                <rect id="Rectangle" x="0" y="0" width="58" height="54" rx="2"></rect>
            </g>
            <g id="menu-copy" transform="translate(156.000000, 148.000000)">
                <rect id="Rectangle" x="0" y="0" width="58" height="54" rx="2"></rect>
            </g>
        </g>
    </g>
</svg>