<?xml version="1.0" encoding="utf-8"?>
<!-- Generator: Adobe Illustrator 22.1.0, SVG Export Plug-In . SVG Version: 6.00 Build 0)  -->
<svg version="1.1" id="Layer_1" xmlns="http://www.w3.org/2000/svg" xmlns:xlink="http://www.w3.org/1999/xlink" x="0px" y="0px"
	 viewBox="0 0 24 29" style="enable-background:new 0 0 24 29;" xml:space="preserve" width="24" height="29">
<style type="text/css">
	.st0{fill:#D0021B;}
	.st1{fill:#FFFFFF;}
</style>
<g>
	<path class="st0" d="M0,0v29l12-5.2L24,29V0H0z"/>
</g>
<g>
	<path class="st1" d="M2.5,14.9V9.2h3.9v0.9H3.5v1.5h2.8v0.9H3.5v2.5H2.5z"/>
	<path class="st1" d="M10.6,14.9l-1.3-2.1h-1v2.1h-1V9.2h2.5c0.3,0,0.5,0,0.8,0.1c0.2,0.1,0.4,0.2,0.6,0.4c0.2,0.2,0.3,0.3,0.4,0.6
		c0.1,0.2,0.1,0.5,0.1,0.7c0,0.3,0,0.5-0.1,0.7c-0.1,0.2-0.2,0.4-0.3,0.5c-0.1,0.1-0.3,0.2-0.4,0.3c-0.2,0.1-0.3,0.1-0.5,0.2
		l1.4,2.2H10.6z M9.7,11.9c0.3,0,0.5-0.1,0.7-0.2c0.2-0.2,0.3-0.4,0.3-0.7c0-0.3-0.1-0.5-0.3-0.7c-0.2-0.2-0.4-0.2-0.7-0.2H8.3v1.8
		H9.7z"/>
	<path class="st1" d="M12.7,14.9V9.2h3.9v0.9h-2.9v1.5h2.8v0.9h-2.8V14h2.9v0.9H12.7z"/>
	<path class="st1" d="M17.6,14.9V9.2h3.9v0.9h-2.9v1.5h2.8v0.9h-2.8V14h2.9v0.9H17.6z"/>
</g>
</svg>
